ffmpeg started on 2025-05-12 at 13:20:21
Report written to "D:\Convert\FFMetrics\reports\psnr_report-6.txt"
Log level: 32
Command line:
ffmpeg -hide_banner -nostdin -i "G:\\\xc0\xed\xe8\xec\xe5\\\xce\xed\xe3\xee\xe8\xed\xe3\xe8\\!_35_\xcb\xe5\xf2\xee_2024\\DreamCast\\\xc0\xeb\xff \xe8\xed\xee\xe3\xe4\xe0 \xea\xee\xea\xe5\xf2\xed\xe8\xf7\xe0\xe5\xf2 \xf1\xee \xec\xed\xee\xe9 \xef\xee-\xf0\xf3\xf1\xf1\xea\xe8\\[DC] Roshidere - 10_Telegram_HEVC.mkv" -i "G:\\\xc0\xed\xe8\xec\xe5\\\xce\xed\xe3\xee\xe8\xed\xe3\xe8\\!_35_\xcb\xe5\xf2\xee_2024\\DreamCast\\\xc0\xeb\xff \xe8\xed\xee\xe3\xe4\xe0 \xea\xee\xea\xe5\xf2\xed\xe8\xf7\xe0\xe5\xf2 \xf1\xee \xec\xed\xee\xe9 \xef\xee-\xf0\xf3\xf1\xf1\xea\xe8\\[DC] Roshidere - 10_Telegram.mp4" -lavfi "[0:v]settb=AVTB,setpts=PTS-STARTPTS,format=pix_fmts=yuv420p10,fps=24000/1001,scale=1920:1080:flags=bicubic[main];[1:v]settb=AVTB,setpts=PTS-STARTPTS,format=pix_fmts=yuv420p,fps=24000/1001,scale=1920:1080:flags=bicubic[ref];[main][ref]psnr=eof_action=endall:stats_file='D\\:/Convert/FFMetrics/logs/psnr_logfile-6.txt'" -f null -
Input #0, matroska,webm, from 'G:\Аниме\Онгоинги\!_35_Лето_2024\DreamCast\Аля иногда кокетничает со мной по-русски\[DC] Roshidere - 10_Telegram_HEVC.mkv':
  Metadata:
    COMPATIBLE_BRANDS: isomiso2avc1mp41
    MAJOR_BRAND     : isom
    MINOR_VERSION   : 512
    ENCODER         : Lavf61.7.100
  Duration: 00:24:17.11, start: -0.021000, bitrate: 995 kb/s
  Stream #0:0: Video: hevc (Main 10), yuv420p10le(tv, bt709, progressive), 1920x1080 [SAR 1:1 DAR 16:9], 23.98 fps, 23.98 tbr, 1k tbn (default)
      Metadata:
        HANDLER_NAME    : VideoHandler
        VENDOR_ID       : [0][0][0][0]
        ENCODER         : Lavc61.19.100 libx265
        BPS             : 798644
        DURATION        : 00:24:16.496708333
        NUMBER_OF_FRAMES: 34921
        NUMBER_OF_BYTES : 145402818
        _STATISTICS_WRITING_APP: mkvpropedit v66.0.0 ('Josie') 64-bit
        _STATISTICS_WRITING_DATE_UTC: 2025-05-06 12:58:35
        _STATISTICS_TAGS: BPS DURATION NUMBER_OF_FRAMES NUMBER_OF_BYTES
  Stream #0:1: Audio: aac (LC), 48000 Hz, stereo, fltp (default)
      Metadata:
        HANDLER_NAME    : SoundHandler
        VENDOR_ID       : [0][0][0][0]
        ENCODER         : Lavc61.19.100 aac
        BPS             : 193196
        DURATION        : 00:24:17.109000000
        NUMBER_OF_FRAMES: 68303
        NUMBER_OF_BYTES : 35188622
        _STATISTICS_WRITING_APP: mkvpropedit v66.0.0 ('Josie') 64-bit
        _STATISTICS_WRITING_DATE_UTC: 2025-05-06 12:58:35
        _STATISTICS_TAGS: BPS DURATION NUMBER_OF_FRAMES NUMBER_OF_BYTES
Input #1, mov,mp4,m4a,3gp,3g2,mj2, from 'G:\Аниме\Онгоинги\!_35_Лето_2024\DreamCast\Аля иногда кокетничает со мной по-русски\[DC] Roshidere - 10_Telegram.mp4':
  Metadata:
    major_brand     : isom
    minor_version   : 512
    compatible_brands: isomiso2avc1mp41
    encoder         : Lavf61.1.100
  Duration: 00:24:17.07, start: 0.000000, bitrate: 3683 kb/s
  Stream #1:0[0x1](und): Video: h264 (High) (avc1 / 0x31637661), yuv420p(tv, bt709, progressive), 1920x1080 [SAR 1:1 DAR 16:9], 3536 kb/s, 23.98 fps, 23.98 tbr, 24k tbn (default)
      Metadata:
        handler_name    : VideoHandler
        vendor_id       : [0][0][0][0]
        encoder         : Lavc61.3.100 h264_qsv
  Stream #1:1[0x2](und): Audio: aac (HE-AACv2) (mp4a / 0x6134706D), 48000 Hz, stereo, fltp, 144 kb/s (default)
      Metadata:
        handler_name    : SoundHandler
        vendor_id       : [0][0][0][0]
Stream mapping:
  Stream #0:0 (hevc) -> settb:default
  Stream #1:0 (h264) -> settb:default
  psnr:default -> Stream #0:0 (wrapped_avframe)
  Stream #0:1 -> #0:1 (aac (native) -> pcm_s16le (native))
Output #0, null, to 'pipe:':
  Metadata:
    COMPATIBLE_BRANDS: isomiso2avc1mp41
    MAJOR_BRAND     : isom
    MINOR_VERSION   : 512
    encoder         : Lavf61.7.100
  Stream #0:0: Video: wrapped_avframe, yuv420p10le(tv, bt709, progressive), 1920x1080 [SAR 1:1 DAR 16:9], q=2-31, 200 kb/s, 23.98 fps, 23.98 tbn
      Metadata:
        encoder         : Lavc61.19.100 wrapped_avframe
  Stream #0:1: Audio: pcm_s16le, 48000 Hz, stereo, s16, 1536 kb/s (default)
      Metadata:
        HANDLER_NAME    : SoundHandler
        VENDOR_ID       : [0][0][0][0]
        _STATISTICS_TAGS: BPS DURATION NUMBER_OF_FRAMES NUMBER_OF_BYTES
        BPS             : 193196
        DURATION        : 00:24:17.109000000
        NUMBER_OF_FRAMES: 68303
        NUMBER_OF_BYTES : 35188622
        _STATISTICS_WRITING_APP: mkvpropedit v66.0.0 ('Josie') 64-bit
        _STATISTICS_WRITING_DATE_UTC: 2025-05-06 12:58:35
        encoder         : Lavc61.19.100 pcm_s16le
frame=  172 fps=0.0 q=-0.0 size=N/A time=00:00:07.17 bitrate=N/A speed=13.7x    frame=  437 fps=423 q=-0.0 size=N/A time=00:00:18.22 bitrate=N/A speed=17.6x    frame=  711 fps=461 q=-0.0 size=N/A time=00:00:29.65 bitrate=N/A speed=19.2x    frame=  976 fps=473 q=-0.0 size=N/A time=00:00:40.70 bitrate=N/A speed=19.7x    frame= 1262 fps=488 q=-0.0 size=N/A time=00:00:52.63 bitrate=N/A speed=20.3x    frame= 1500 fps=485 q=-0.0 size=N/A time=00:01:02.56 bitrate=N/A speed=20.2x    frame= 1748 fps=484 q=-0.0 size=N/A time=00:01:12.90 bitrate=N/A speed=20.2x    frame= 1922 fps=466 q=-0.0 size=N/A time=00:01:20.16 bitrate=N/A speed=19.4x    frame= 2137 fps=460 q=-0.0 size=N/A time=00:01:29.13 bitrate=N/A speed=19.2x    frame= 2333 fps=453 q=-0.0 size=N/A time=00:01:37.30 bitrate=N/A speed=18.9x    frame= 2546 fps=449 q=-0.0 size=N/A time=00:01:46.18 bitrate=N/A speed=18.7x    frame= 2768 fps=447 q=-0.0 size=N/A time=00:01:55.44 bitrate=N/A speed=18.6x    frame= 2961 fps=442 q=-0.0 size=N/A time=00:02:03.49 bitrate=N/A speed=18.4x    frame= 3125 fps=432 q=-0.0 size=N/A time=00:02:10.33 bitrate=N/A speed=  18x    frame= 3300 fps=427 q=-0.0 size=N/A time=00:02:17.63 bitrate=N/A speed=17.8x    frame= 3508 fps=425 q=-0.0 size=N/A time=00:02:26.31 bitrate=N/A speed=17.7x    frame= 3689 fps=421 q=-0.0 size=N/A time=00:02:33.86 bitrate=N/A speed=17.6x    frame= 3965 fps=427 q=-0.0 size=N/A time=00:02:45.37 bitrate=N/A speed=17.8x    frame= 4236 fps=432 q=-0.0 size=N/A time=00:02:56.67 bitrate=N/A speed=  18x    frame= 4516 fps=438 q=-0.0 size=N/A time=00:03:08.35 bitrate=N/A speed=18.3x    frame= 4787 fps=442 q=-0.0 size=N/A time=00:03:19.65 bitrate=N/A speed=18.4x    frame= 5066 fps=446 q=-0.0 size=N/A time=00:03:31.29 bitrate=N/A speed=18.6x    frame= 5335 fps=450 q=-0.0 size=N/A time=00:03:42.51 bitrate=N/A speed=18.7x    frame= 5583 fps=451 q=-0.0 size=N/A time=00:03:52.85 bitrate=N/A speed=18.8x    frame= 5871 fps=455 q=-0.0 size=N/A time=00:04:04.86 bitrate=N/A speed=  19x    frame= 6143 fps=458 q=-0.0 size=N/A time=00:04:16.21 bitrate=N/A speed=19.1x    frame= 6422 fps=461 q=-0.0 size=N/A time=00:04:27.85 bitrate=N/A speed=19.2x    frame= 6705 fps=464 q=-0.0 size=N/A time=00:04:39.65 bitrate=N/A speed=19.3x    frame= 6990 fps=467 q=-0.0 size=N/A time=00:04:51.54 bitrate=N/A speed=19.5x    frame= 7273 fps=469 q=-0.0 size=N/A time=00:05:03.34 bitrate=N/A speed=19.6x    frame= 7549 fps=472 q=-0.0 size=N/A time=00:05:14.85 bitrate=N/A speed=19.7x    frame= 7824 fps=473 q=-0.0 size=N/A time=00:05:26.32 bitrate=N/A speed=19.7x    frame= 8063 fps=473 q=-0.0 size=N/A time=00:05:36.29 bitrate=N/A speed=19.7x    frame= 8329 fps=474 q=-0.0 size=N/A time=00:05:47.38 bitrate=N/A speed=19.8x    frame= 8606 fps=477 q=-0.0 size=N/A time=00:05:58.94 bitrate=N/A speed=19.9x    frame= 8863 fps=477 q=-0.0 size=N/A time=00:06:09.66 bitrate=N/A speed=19.9x    frame= 9114 fps=477 q=-0.0 size=N/A time=00:06:20.12 bitrate=N/A speed=19.9x    frame= 9346 fps=477 q=-0.0 size=N/A time=00:06:29.80 bitrate=N/A speed=19.9x    frame= 9568 fps=475 q=-0.0 size=N/A time=00:06:39.06 bitrate=N/A speed=19.8x    frame= 9787 fps=474 q=-0.0 size=N/A time=00:06:48.19 bitrate=N/A speed=19.8x    frame=10054 fps=475 q=-0.0 size=N/A time=00:06:59.33 bitrate=N/A speed=19.8x    frame=10316 fps=476 q=-0.0 size=N/A time=00:07:10.26 bitrate=N/A speed=19.9x    frame=10594 fps=478 q=-0.0 size=N/A time=00:07:21.89 bitrate=N/A speed=19.9x    frame=10880 fps=479 q=-0.0 size=N/A time=00:07:33.78 bitrate=N/A speed=  20x    frame=11155 fps=480 q=-0.0 size=N/A time=00:07:45.25 bitrate=N/A speed=  20x    frame=11428 fps=481 q=-0.0 size=N/A time=00:07:56.64 bitrate=N/A speed=20.1x    frame=11688 fps=482 q=-0.0 size=N/A time=00:08:07.48 bitrate=N/A speed=20.1x    frame=11919 fps=481 q=-0.0 size=N/A time=00:08:17.12 bitrate=N/A speed=20.1x    frame=12123 fps=479 q=-0.0 size=N/A time=00:08:25.63 bitrate=N/A speed=  20x    frame=12332 fps=478 q=-0.0 size=N/A time=00:08:34.34 bitrate=N/A speed=19.9x    frame=12545 fps=477 q=-0.0 size=N/A time=00:08:43.23 bitrate=N/A speed=19.9x    frame=12762 fps=476 q=-0.0 size=N/A time=00:08:52.28 bitrate=N/A speed=19.8x    frame=12982 fps=475 q=-0.0 size=N/A time=00:09:01.45 bitrate=N/A speed=19.8x    frame=13205 fps=474 q=-0.0 size=N/A time=00:09:10.75 bitrate=N/A speed=19.8x    frame=13444 fps=474 q=-0.0 size=N/A time=00:09:20.72 bitrate=N/A speed=19.8x    frame=13667 fps=473 q=-0.0 size=N/A time=00:09:30.02 bitrate=N/A speed=19.7x    frame=13862 fps=471 q=-0.0 size=N/A time=00:09:38.16 bitrate=N/A speed=19.7x    frame=14047 fps=469 q=-0.0 size=N/A time=00:09:45.87 bitrate=N/A speed=19.6x    frame=14283 fps=469 q=-0.0 size=N/A time=00:09:55.72 bitrate=N/A speed=19.6x    frame=14550 fps=470 q=-0.0 size=N/A time=00:10:06.85 bitrate=N/A speed=19.6x    frame=14798 fps=470 q=-0.0 size=N/A time=00:10:17.19 bitrate=N/A speed=19.6x    frame=15037 fps=470 q=-0.0 size=N/A time=00:10:27.16 bitrate=N/A speed=19.6x    frame=15316 fps=471 q=-0.0 size=N/A time=00:10:38.80 bitrate=N/A speed=19.7x    frame=15601 fps=473 q=-0.0 size=N/A time=00:10:50.69 bitrate=N/A speed=19.7x    frame=15851 fps=473 q=-0.0 size=N/A time=00:11:01.11 bitrate=N/A speed=19.7x    frame=16101 fps=473 q=-0.0 size=N/A time=00:11:11.54 bitrate=N/A speed=19.7x    frame=16390 fps=474 q=-0.0 size=N/A time=00:11:23.59 bitrate=N/A speed=19.8x    frame=16678 fps=475 q=-0.0 size=N/A time=00:11:35.61 bitrate=N/A speed=19.8x    frame=16963 fps=477 q=-0.0 size=N/A time=00:11:47.49 bitrate=N/A speed=19.9x    frame=17248 fps=478 q=-0.0 size=N/A time=00:11:59.38 bitrate=N/A speed=19.9x    frame=17501 fps=478 q=-0.0 size=N/A time=00:12:09.93 bitrate=N/A speed=19.9x    frame=17782 fps=479 q=-0.0 size=N/A time=00:12:21.65 bitrate=N/A speed=  20x    frame=18038 fps=479 q=-0.0 size=N/A time=00:12:32.33 bitrate=N/A speed=  20x    frame=18316 fps=480 q=-0.0 size=N/A time=00:12:43.92 bitrate=N/A speed=  20x    frame=18602 fps=481 q=-0.0 size=N/A time=00:12:55.85 bitrate=N/A speed=  20x    frame=18870 fps=481 q=-0.0 size=N/A time=00:13:07.03 bitrate=N/A speed=20.1x    frame=19116 fps=481 q=-0.0 size=N/A time=00:13:17.29 bitrate=N/A speed=20.1x    frame=19378 fps=481 q=-0.0 size=N/A time=00:13:28.22 bitrate=N/A speed=20.1x    frame=19630 fps=482 q=-0.0 size=N/A time=00:13:38.73 bitrate=N/A speed=20.1x    frame=19878 fps=481 q=-0.0 size=N/A time=00:13:49.07 bitrate=N/A speed=20.1x    frame=20150 fps=482 q=-0.0 size=N/A time=00:14:00.42 bitrate=N/A speed=20.1x    frame=20415 fps=482 q=-0.0 size=N/A time=00:14:11.47 bitrate=N/A speed=20.1x    frame=20684 fps=483 q=-0.0 size=N/A time=00:14:22.69 bitrate=N/A speed=20.1x    frame=20945 fps=483 q=-0.0 size=N/A time=00:14:33.58 bitrate=N/A speed=20.2x    frame=21230 fps=484 q=-0.0 size=N/A time=00:14:45.46 bitrate=N/A speed=20.2x    frame=21485 fps=484 q=-0.0 size=N/A time=00:14:56.10 bitrate=N/A speed=20.2x    frame=21738 fps=484 q=-0.0 size=N/A time=00:15:06.65 bitrate=N/A speed=20.2x    frame=21973 fps=484 q=-0.0 size=N/A time=00:15:16.45 bitrate=N/A speed=20.2x    frame=22237 fps=484 q=-0.0 size=N/A time=00:15:27.46 bitrate=N/A speed=20.2x    frame=22481 fps=484 q=-0.0 size=N/A time=00:15:37.64 bitrate=N/A speed=20.2x    frame=22756 fps=485 q=-0.0 size=N/A time=00:15:49.11 bitrate=N/A speed=20.2x    frame=23028 fps=485 q=-0.0 size=N/A time=00:16:00.45 bitrate=N/A speed=20.2x    frame=23310 fps=486 q=-0.0 size=N/A time=00:16:12.22 bitrate=N/A speed=20.3x    frame=23554 fps=486 q=-0.0 size=N/A time=00:16:22.39 bitrate=N/A speed=20.3x    frame=23805 fps=486 q=-0.0 size=N/A time=00:16:32.86 bitrate=N/A speed=20.3x    frame=24064 fps=486 q=-0.0 size=N/A time=00:16:43.66 bitrate=N/A speed=20.3x    frame=24301 fps=485 q=-0.0 size=N/A time=00:16:53.55 bitrate=N/A speed=20.2x    frame=24546 fps=485 q=-0.0 size=N/A time=00:17:03.77 bitrate=N/A speed=20.2x    frame=24797 fps=485 q=-0.0 size=N/A time=00:17:14.24 bitrate=N/A speed=20.2x    frame=25076 fps=486 q=-0.0 size=N/A time=00:17:25.87 bitrate=N/A speed=20.3x    frame=25343 fps=486 q=-0.0 size=N/A time=00:17:37.01 bitrate=N/A speed=20.3x    frame=25606 fps=486 q=-0.0 size=N/A time=00:17:47.98 bitrate=N/A speed=20.3x    frame=25883 fps=487 q=-0.0 size=N/A time=00:17:59.53 bitrate=N/A speed=20.3x    frame=26150 fps=487 q=-0.0 size=N/A time=00:18:10.67 bitrate=N/A speed=20.3x    frame=26410 fps=487 q=-0.0 size=N/A time=00:18:21.51 bitrate=N/A speed=20.3x    frame=26675 fps=488 q=-0.0 size=N/A time=00:18:32.56 bitrate=N/A speed=20.3x    frame=26899 fps=487 q=-0.0 size=N/A time=00:18:41.91 bitrate=N/A speed=20.3x    frame=27138 fps=487 q=-0.0 size=N/A time=00:18:51.88 bitrate=N/A speed=20.3x    frame=27405 fps=487 q=-0.0 size=N/A time=00:19:03.01 bitrate=N/A speed=20.3x    frame=27662 fps=487 q=-0.0 size=N/A time=00:19:13.73 bitrate=N/A speed=20.3x    frame=27885 fps=487 q=-0.0 size=N/A time=00:19:23.03 bitrate=N/A speed=20.3x    frame=28148 fps=487 q=-0.0 size=N/A time=00:19:34.00 bitrate=N/A speed=20.3x    frame=28368 fps=487 q=-0.0 size=N/A time=00:19:43.18 bitrate=N/A speed=20.3x    frame=28597 fps=486 q=-0.0 size=N/A time=00:19:52.73 bitrate=N/A speed=20.3x    frame=28844 fps=486 q=-0.0 size=N/A time=00:20:03.03 bitrate=N/A speed=20.3x    frame=29108 fps=486 q=-0.0 size=N/A time=00:20:14.04 bitrate=N/A speed=20.3x    frame=29375 fps=487 q=-0.0 size=N/A time=00:20:25.18 bitrate=N/A speed=20.3x    frame=29637 fps=487 q=-0.0 size=N/A time=00:20:36.10 bitrate=N/A speed=20.3x    frame=29893 fps=487 q=-0.0 size=N/A time=00:20:46.78 bitrate=N/A speed=20.3x    frame=30106 fps=486 q=-0.0 size=N/A time=00:20:55.67 bitrate=N/A speed=20.3x    frame=30359 fps=486 q=-0.0 size=N/A time=00:21:06.22 bitrate=N/A speed=20.3x    frame=30601 fps=486 q=-0.0 size=N/A time=00:21:16.31 bitrate=N/A speed=20.3x    frame=30892 fps=487 q=-0.0 size=N/A time=00:21:28.45 bitrate=N/A speed=20.3x    frame=31147 fps=487 q=-0.0 size=N/A time=00:21:39.08 bitrate=N/A speed=20.3x    frame=31420 fps=487 q=-0.0 size=N/A time=00:21:50.47 bitrate=N/A speed=20.3x    frame=31657 fps=487 q=-0.0 size=N/A time=00:22:00.36 bitrate=N/A speed=20.3x    frame=31876 fps=486 q=-0.0 size=N/A time=00:22:09.49 bitrate=N/A speed=20.3x    frame=32115 fps=486 q=-0.0 size=N/A time=00:22:19.46 bitrate=N/A speed=20.3x    frame=32355 fps=486 q=-0.0 size=N/A time=00:22:29.47 bitrate=N/A speed=20.3x    frame=32622 fps=486 q=-0.0 size=N/A time=00:22:40.60 bitrate=N/A speed=20.3x    frame=32854 fps=486 q=-0.0 size=N/A time=00:22:50.28 bitrate=N/A speed=20.3x    frame=33056 fps=485 q=-0.0 size=N/A time=00:22:58.71 bitrate=N/A speed=20.2x    frame=33265 fps=485 q=-0.0 size=N/A time=00:23:07.42 bitrate=N/A speed=20.2x    frame=33466 fps=484 q=-0.0 size=N/A time=00:23:15.81 bitrate=N/A speed=20.2x    frame=33657 fps=483 q=-0.0 size=N/A time=00:23:23.77 bitrate=N/A speed=20.2x    frame=33877 fps=483 q=-0.0 size=N/A time=00:23:32.95 bitrate=N/A speed=20.1x    frame=34104 fps=483 q=-0.0 size=N/A time=00:23:42.42 bitrate=N/A speed=20.1x    frame=34285 fps=482 q=-0.0 size=N/A time=00:23:49.97 bitrate=N/A speed=20.1x    frame=34468 fps=481 q=-0.0 size=N/A time=00:23:57.60 bitrate=N/A speed=  20x    frame=34669 fps=480 q=-0.0 size=N/A time=00:24:05.98 bitrate=N/A speed=  20x    frame=34862 fps=479 q=-0.0 size=N/A time=00:24:14.03 bitrate=N/A speed=  20x    [Parsed_psnr_10 @ 0000016699057e00] PSNR y:48.562540 u:50.997861 v:50.467667 average:49.170950 min:41.881703 max:inf
[out#0/null @ 00000166993a0640] video:15005KiB audio:273212KiB subtitle:0KiB other streams:0KiB global headers:0KiB muxing overhead: unknown
frame=34921 fps=479 q=-0.0 Lsize=N/A time=00:24:16.49 bitrate=N/A speed=  20x    
